<svg width="30" height="30" viewBox="0 0 30 30" fill="none" xmlns="http://www.w3.org/2000/svg">
<rect width="9.54545" height="2.72727" transform="matrix(1 0 0 -1 0 30)" fill="#AF001E"/>
<rect width="9.54545" height="2.72727" transform="matrix(1 0 0 -1 0 26.5911)" fill="#AF001E"/>
<rect width="9.54545" height="2.72727" transform="matrix(1 0 0 -1 0 23.1816)" fill="#AF001E"/>
<rect width="9.54545" height="2.72727" transform="matrix(-4.37114e-08 1 1 4.37114e-08 10.2275 20.4546)" fill="#AF001E"/>
<rect width="9.54545" height="2.72727" transform="matrix(-4.37114e-08 1 1 4.37114e-08 13.6367 20.4546)" fill="#AF001E"/>
<rect width="9.54545" height="2.72727" transform="matrix(-4.37114e-08 1 1 4.37114e-08 17.0454 20.4546)" fill="#AF001E"/>
<rect width="9.54545" height="2.72727" transform="matrix(1 0 0 -1 20.4546 30)" fill="#AF001E"/>
<rect width="9.54545" height="2.72727" transform="matrix(1 0 0 -1 20.4546 26.5911)" fill="#AF001E"/>
<rect width="9.54545" height="2.72727" transform="matrix(1 0 0 -1 20.4546 23.1816)" fill="#AF001E"/>
<rect width="9.54545" height="2.72727" transform="matrix(-4.37114e-08 1 1 4.37114e-08 0 10.2273)" fill="#AF001E"/>
<rect width="9.54545" height="2.72727" transform="matrix(-4.37114e-08 1 1 4.37114e-08 3.40918 10.2273)" fill="#AF001E"/>
<rect width="9.54545" height="2.72727" transform="matrix(-4.37114e-08 1 1 4.37114e-08 6.81787 10.2273)" fill="#AF001E"/>
<rect width="9.54545" height="2.72727" transform="matrix(1 0 0 -1 10.2275 19.7727)" fill="#AF001E"/>
<rect width="9.54545" height="2.72727" transform="matrix(1 0 0 -1 10.2275 16.3638)" fill="#AF001E"/>
<rect width="9.54545" height="2.72727" transform="matrix(1 0 0 -1 10.2275 12.9546)" fill="#AF001E"/>
<rect width="9.54545" height="2.72727" transform="matrix(-4.37114e-08 1 1 4.37114e-08 20.4546 10.2273)" fill="#AF001E"/>
<rect width="9.54545" height="2.72727" transform="matrix(-4.37114e-08 1 1 4.37114e-08 23.8633 10.2273)" fill="#AF001E"/>
<rect width="9.54545" height="2.72727" transform="matrix(-4.37114e-08 1 1 4.37114e-08 27.2725 10.2273)" fill="#AF001E"/>
<rect width="9.54545" height="2.72727" transform="matrix(1 0 0 -1 0 9.54541)" fill="#AF001E"/>
<rect width="9.54545" height="2.72727" transform="matrix(1 0 0 -1 0 6.13623)" fill="#AF001E"/>
<rect width="9.54545" height="2.72727" transform="matrix(1 0 0 -1 0 2.72729)" fill="#AF001E"/>
<rect width="9.54545" height="2.72727" transform="matrix(-4.37114e-08 1 1 4.37114e-08 10.2275 0)" fill="#AF001E"/>
<rect width="9.54545" height="2.72727" transform="matrix(-4.37114e-08 1 1 4.37114e-08 13.6367 0)" fill="#AF001E"/>
<rect width="9.54545" height="2.72727" transform="matrix(-4.37114e-08 1 1 4.37114e-08 17.0454 0)" fill="#AF001E"/>
<rect width="9.54545" height="2.72727" transform="matrix(1 0 0 -1 20.4546 9.54541)" fill="#AF001E"/>
<rect width="9.54545" height="2.72727" transform="matrix(1 0 0 -1 20.4546 6.13623)" fill="#AF001E"/>
<rect width="9.54545" height="2.72727" transform="matrix(1 0 0 -1 20.4546 2.72729)" fill="#AF001E"/>
</svg>
